<mxfile host="app.diagrams.net" modified="2024-03-26T16:21:52.077Z" agent="Mozilla/5.0 (Macintosh; Intel Mac OS X 10_15_7) AppleWebKit/537.36 (KHTML, like Gecko) Chrome/122.0.0.0 Safari/537.36" version="24.2.0" etag="pPD_48Z_cY0SDtZriqYR" type="github">
  <diagram name="第 1 页" id="QeHdhni4edOGU2YV35dl">
    <mxGraphModel>
      <root>
        <mxCell id="0" />
        <mxCell id="1" parent="0" />
      </root>
    </mxGraphModel>
  </diagram>
</mxfile>
